<svg width="581" height="585" viewBox="0 0 581 585" fill="none" xmlns="http://www.w3.org/2000/svg">
<g opacity="0.05">
<path d="M290.5 580C450.386 580 580 450.386 580 290.5C580 130.614 450.386 1 290.5 1C130.614 1 1 130.614 1 290.5C1 450.386 130.614 580 290.5 580Z" stroke="#1B212F" stroke-width="2"/>
</g>
<path d="M290.5 552C434.37 552 551 435.37 551 291.5C551 147.63 434.37 31 290.5 31C146.63 31 30 147.63 30 291.5C30 435.37 146.63 552 290.5 552Z" fill="#FF4939"/>
<path d="M568.5 220C572.642 220 576 216.642 576 212.5C576 208.358 572.642 205 568.5 205C564.358 205 561 208.358 561 212.5C561 216.642 564.358 220 568.5 220Z" fill="#FF4939"/>
<path d="M152.5 43C156.642 43 160 39.6421 160 35.5C160 31.3579 156.642 28 152.5 28C148.358 28 145 31.3579 145 35.5C145 39.6421 148.358 43 152.5 43Z" fill="#2878EB"/>
<path d="M35 435C38.3137 435 41 432.314 41 429C41 425.686 38.3137 423 35 423C31.6863 423 29 425.686 29 429C29 432.314 31.6863 435 35 435Z" fill="#8E66FF"/>
<path d="M326 585C330.971 585 335 580.971 335 576C335 571.029 330.971 567 326 567C321.029 567 317 571.029 317 576C317 580.971 321.029 585 326 585Z" fill="#F14D5D"/>
</svg>
