<svg width="992" height="1146" viewBox="0 0 992 1146" fill="none" xmlns="http://www.w3.org/2000/svg">
<g opacity="0.1">
<path d="M420.978 231.442C419.352 213.55 415.692 195.862 409.999 178.377C400.24 146.661 353.885 69.1992 327.658 49.0714C273.984 6.98592 190.423 -3.38274 124.55 0.886802C28.1802 6.98614 -40.7415 27.7238 -104.785 102.136C-171.877 180.207 -204.204 257.059 -184.076 362.578C-168.828 441.869 -63.3099 557.147 14.7617 579.714C29.4001 583.78 44.0397 586.627 58.6781 588.253C73.3165 396.124 228.239 243.641 420.978 231.442Z" fill="#FF4939"/>
<path d="M58.0566 641.911C-60.8805 660.209 -100.527 812.082 -58.4414 911.502C-21.2354 997.502 73.9155 1054.23 168.455 1032.27C200.782 1024.95 240.428 998.112 272.144 966.396C151.377 906.012 66.5957 784.026 58.0566 641.911Z" fill="#FCC380"/>
<path d="M298.992 726.703C301.025 729.549 303.262 732.599 305.702 735.852C303.669 732.599 301.432 729.549 298.992 726.703Z" fill="#00BAC2"/>
<path d="M464.281 799.894C467.941 799.487 471.397 799.081 474.65 798.674C470.99 799.081 467.534 799.487 464.281 799.894Z" fill="#8E5CA5"/>
<path d="M322.172 987.147C322.172 1080.47 382.555 1168.3 504.542 1140.85C562.485 1128.04 624.698 1094.49 649.096 1037.77C663.124 1004.22 668.005 971.288 663.735 940.181C601.522 982.267 526.5 1007.27 445.989 1007.27C402.683 1007.27 361.208 999.955 322.172 987.147Z" fill="#FCE297"/>
<path d="M420.97 231.43C228.231 243.628 73.3083 396.112 58.6699 588.241C248.359 608.979 439.878 421.119 420.97 231.43Z" fill="#CB1C1B"/>
<path d="M328.269 882.225C345.958 824.281 334.369 774.877 305.702 735.841C303.262 732.588 301.025 729.538 298.992 726.692C246.538 663.869 148.339 631.542 64.1677 641.301C62.1346 641.708 60.1015 641.912 58.0684 641.912C66.6074 784.026 151.389 906.013 272.156 966.396C298.993 939.559 320.34 909.062 328.269 882.225Z" fill="#FF4939"/>
<path d="M784.521 411.978C689.981 286.332 577.752 235.708 463.695 230.828C436.857 308.29 448.446 399.17 514.928 447.965C517.775 449.998 520.418 451.828 522.858 453.454C534.65 459.147 545.63 465.856 555.795 473.581C558.235 474.801 560.877 476.022 563.723 477.242C646.064 516.277 722.307 494.929 784.521 411.978Z" fill="#85151C"/>
<path d="M784.504 411.966C785.724 410.339 786.943 408.713 788.162 407.087C832.078 346.703 841.227 227.766 789.993 170.432C744.857 119.197 684.474 87.4806 614.331 94.7998C541.749 103.339 487.465 161.283 463.678 230.815C577.735 235.695 689.964 286.319 784.504 411.966Z" fill="#CB1C1B"/>
<path d="M475.264 798.684C475.264 798.684 475.062 798.684 474.655 798.684C471.402 799.091 467.946 799.497 464.287 799.903C369.747 815.762 322.172 903.593 322.172 987.154C361.208 999.962 402.683 1007.28 445.989 1007.28C526.5 1007.28 601.522 982.274 663.735 940.188C652.756 854.188 577.123 788.925 475.264 798.684Z" fill="#FCC380"/>
<path d="M841.242 796.241C821.724 754.766 780.249 724.269 733.284 728.539C679.61 732.808 655.823 761.475 660.702 808.44C661.515 814.946 662.734 821.655 664.361 828.568C667.411 841.377 673.511 857.844 682.05 873.093C691.199 888.951 702.787 903.589 716.205 909.689C787.568 942.015 876.008 870.043 841.242 796.241Z" fill="#FCE297"/>
<path d="M757.025 571.777C757.025 570.15 757.025 568.32 757.025 566.287L751.535 569.337L757.025 571.777Z" fill="#EF4F23"/>
<path d="M814.402 463.813C729.011 475.402 695.466 596.169 747.92 660.212C808.303 732.795 924.191 744.383 973.596 652.893C1036.42 536.395 927.24 447.955 814.402 463.813Z" fill="#85151C"/>
</g>
</svg>
